REM DIRINDEX 1\3,1\2\4,1\2\5,1\2\6
REM DIRNAME cjc137,folder01,folder02,folder03,folder04,folder05
TITLE ""
FILE "070.mp3" MP3
  TRACK 01 AUDIO
    TITLE "4:cjc137_2864"
    INDEX 01 00:00:00
  TRACK 02 AUDIO
    TITLE "0:"
    INDEX 01 00:01:11
  TRACK 03 AUDIO
    TITLE "6:cjc137_2865"
    INDEX 01 00:01:17
  TRACK 04 AUDIO
    TITLE "0:"
    INDEX 01 00:02:08
  TRACK 05 AUDIO
    TITLE "5:cjc137_2866"
    INDEX 01 00:02:12
  TRACK 06 AUDIO
    TITLE "0:"
    INDEX 01 00:03:21
  TRACK 07 AUDIO
    TITLE "4:cjc137_2867"
    INDEX 01 00:04:29
  TRACK 08 AUDIO
    TITLE "0:"
    INDEX 01 00:05:44
  TRACK 09 AUDIO
    TITLE "6:cjc137_2868"
    INDEX 01 00:05:54
  TRACK 10 AUDIO
    TITLE "0:"
    INDEX 01 00:06:59
  TRACK 11 AUDIO
    TITLE "5:cjc137_2869"
    INDEX 01 00:06:63
  TRACK 12 AUDIO
    TITLE "0:"
    INDEX 01 00:08:05
  TRACK 13 AUDIO
    TITLE "4:cjc137_2870"
    INDEX 01 00:09:12
  TRACK 14 AUDIO
    TITLE "0:"
    INDEX 01 00:10:14
  TRACK 15 AUDIO
    TITLE "6:cjc137_2871"
    INDEX 01 00:10:23
  TRACK 16 AUDIO
    TITLE "0:"
    INDEX 01 00:11:52
  TRACK 17 AUDIO
    TITLE "5:cjc137_2872"
    INDEX 01 00:11:56
  TRACK 18 AUDIO
    TITLE "0:"
    INDEX 01 00:12:60
  TRACK 19 AUDIO
    TITLE "4:cjc137_2873"
    INDEX 01 00:13:67
  TRACK 20 AUDIO
    TITLE "0:"
    INDEX 01 00:14:64
  TRACK 21 AUDIO
    TITLE "6:cjc137_2874"
    INDEX 01 00:14:70
  TRACK 22 AUDIO
    TITLE "0:"
    INDEX 01 00:16:18
  TRACK 23 AUDIO
    TITLE "5:cjc137_2875"
    INDEX 01 00:16:22
  TRACK 24 AUDIO
    TITLE "0:"
    INDEX 01 00:17:21
  TRACK 25 AUDIO
    TITLE "4:cjc137_2876"
    INDEX 01 00:18:29
  TRACK 26 AUDIO
    TITLE "0:"
    INDEX 01 00:19:44
  TRACK 27 AUDIO
    TITLE "6:cjc137_2877"
    INDEX 01 00:19:48
  TRACK 28 AUDIO
    TITLE "0:"
    INDEX 01 00:20:59
  TRACK 29 AUDIO
    TITLE "5:cjc137_2878"
    INDEX 01 00:20:65
  TRACK 30 AUDIO
    TITLE "0:"
    INDEX 01 00:22:05
  TRACK 31 AUDIO
    TITLE "4:cjc137_2879"
    INDEX 01 00:23:10
  TRACK 32 AUDIO
    TITLE "0:"
    INDEX 01 00:24:20
  TRACK 33 AUDIO
    TITLE "6:cjc137_2880"
    INDEX 01 00:24:29
  TRACK 34 AUDIO
    TITLE "0:"
    INDEX 01 00:25:54
  TRACK 35 AUDIO
    TITLE "5:cjc137_2881"
    INDEX 01 00:25:58
  TRACK 36 AUDIO
    TITLE "0:"
    INDEX 01 00:26:67
  TRACK 37 AUDIO
    TITLE "4:cjc137_2882"
    INDEX 01 00:28:02
  TRACK 38 AUDIO
    TITLE "0:"
    INDEX 01 00:28:72
  TRACK 39 AUDIO
    TITLE "6:cjc137_2883"
    INDEX 01 00:29:05
  TRACK 40 AUDIO
    TITLE "0:"
    INDEX 01 00:30:22
  TRACK 41 AUDIO
    TITLE "5:cjc137_2884"
    INDEX 01 00:30:26
  TRACK 42 AUDIO
    TITLE "0:"
    INDEX 01 00:31:22
  TRACK 43 AUDIO
    TITLE "4:cjc137_2885"
    INDEX 01 00:32:33
  TRACK 44 AUDIO
    TITLE "0:"
    INDEX 01 00:33:50
  TRACK 45 AUDIO
    TITLE "6:cjc137_2886"
    INDEX 01 00:33:58
  TRACK 46 AUDIO
    TITLE "0:"
    INDEX 01 00:35:02
  TRACK 47 AUDIO
    TITLE "5:cjc137_2887"
    INDEX 01 00:35:08
  TRACK 48 AUDIO
    TITLE "0:"
    INDEX 01 00:36:25
  TRACK 49 AUDIO
    TITLE "4:cjc137_2888"
    INDEX 01 00:37:34
  TRACK 50 AUDIO
    TITLE "0:"
    INDEX 01 00:38:61
  TRACK 51 AUDIO
    TITLE "6:cjc137_2889"
    INDEX 01 00:38:73
  TRACK 52 AUDIO
    TITLE "0:"
    INDEX 01 00:40:23
  TRACK 53 AUDIO
    TITLE "5:cjc137_2890"
    INDEX 01 00:40:26
  TRACK 54 AUDIO
    TITLE "0:"
    INDEX 01 00:41:55
  TRACK 55 AUDIO
    TITLE "4:cjc137_2891"
    INDEX 01 00:42:68
  TRACK 56 AUDIO
    TITLE "0:"
    INDEX 01 00:43:68
  TRACK 57 AUDIO
    TITLE "6:cjc137_2892"
    INDEX 01 00:44:01
  TRACK 58 AUDIO
    TITLE "0:"
    INDEX 01 00:45:20
  TRACK 59 AUDIO
    TITLE "5:cjc137_2893"
    INDEX 01 00:45:24
  TRACK 60 AUDIO
    TITLE "0:"
    INDEX 01 00:46:23
  TRACK 61 AUDIO
    TITLE "4:cjc137_2894"
    INDEX 01 00:47:32
  TRACK 62 AUDIO
    TITLE "0:"
    INDEX 01 00:48:44
  TRACK 63 AUDIO
    TITLE "6:cjc137_2895"
    INDEX 01 00:48:49
  TRACK 64 AUDIO
    TITLE "0:"
    INDEX 01 00:49:70
  TRACK 65 AUDIO
    TITLE "5:cjc137_2896"
    INDEX 01 00:49:74
  TRACK 66 AUDIO
    TITLE "0:"
    INDEX 01 00:51:11
  TRACK 67 AUDIO
    TITLE "4:cjc137_2897"
    INDEX 01 00:52:18
  TRACK 68 AUDIO
    TITLE "0:"
    INDEX 01 00:53:35
  TRACK 69 AUDIO
    TITLE "6:cjc137_2898"
    INDEX 01 00:53:47
  TRACK 70 AUDIO
    TITLE "0:"
    INDEX 01 00:54:42
  TRACK 71 AUDIO
    TITLE "5:cjc137_2899"
    INDEX 01 00:54:48
  TRACK 72 AUDIO
    TITLE "0:"
    INDEX 01 00:55:67
  TRACK 73 AUDIO
    TITLE "4:cjc137_2900"
    INDEX 01 00:57:03
  TRACK 74 AUDIO
    TITLE "0:"
    INDEX 01 00:58:30
  TRACK 75 AUDIO
    TITLE "6:cjc137_2901"
    INDEX 01 00:58:38
  TRACK 76 AUDIO
    TITLE "0:"
    INDEX 01 00:59:59
  TRACK 77 AUDIO
    TITLE "5:cjc137_2902"
    INDEX 01 00:59:65
  TRACK 78 AUDIO
    TITLE "0:"
    INDEX 01 01:01:17
  TRACK 79 AUDIO
    TITLE "4:cjc137_2903"
    INDEX 01 01:02:24
  TRACK 80 AUDIO
    TITLE "0:"
    INDEX 01 01:03:26
  TRACK 81 AUDIO
    TITLE "6:cjc137_2904"
    INDEX 01 01:03:31
  TRACK 82 AUDIO
    TITLE "0:"
    INDEX 01 01:04:17
  TRACK 83 AUDIO
    TITLE "5:cjc137_2905"
    INDEX 01 01:04:25
  TRACK 84 AUDIO
    TITLE "0:"
    INDEX 01 01:05:26
